<svg width="24" height="24" viewBox="0 0 24 24" fill="none" xmlns="http://www.w3.org/2000/svg">
<path d="M18.5625 0H5.0625C2.26656 0 0 2.26656 0 5.0625V18.5625C0 21.3584 2.26656 23.625 5.0625 23.625H18.5625C21.3584 23.625 23.625 21.3584 23.625 18.5625V5.0625C23.625 2.26656 21.3584 0 18.5625 0Z" fill="url(#paint0_radial_403845_153)"/>
<path d="M18.5625 0H5.0625C2.26656 0 0 2.26656 0 5.0625V18.5625C0 21.3584 2.26656 23.625 5.0625 23.625H18.5625C21.3584 23.625 23.625 21.3584 23.625 18.5625V5.0625C23.625 2.26656 21.3584 0 18.5625 0Z" fill="url(#paint1_radial_403845_153)"/>
<path d="M18.5625 0H5.0625C2.26656 0 0 2.26656 0 5.0625V18.5625C0 21.3584 2.26656 23.625 5.0625 23.625H18.5625C21.3584 23.625 23.625 21.3584 23.625 18.5625V5.0625C23.625 2.26656 21.3584 0 18.5625 0Z" fill="url(#paint2_radial_403845_153)"/>
<path d="M17.7188 7.17188C17.7188 7.87084 17.1521 8.4375 16.4531 8.4375C15.7542 8.4375 15.1875 7.87084 15.1875 7.17188C15.1875 6.47289 15.7542 5.90625 16.4531 5.90625C17.1521 5.90625 17.7188 6.47289 17.7188 7.17188Z" fill="white"/>
<path fill-rule="evenodd" clip-rule="evenodd" d="M11.8125 16.0312C14.1424 16.0312 16.0312 14.1424 16.0312 11.8125C16.0312 9.48257 14.1424 7.59375 11.8125 7.59375C9.48257 7.59375 7.59375 9.48257 7.59375 11.8125C7.59375 14.1424 9.48257 16.0312 11.8125 16.0312ZM11.8125 14.3438C13.2105 14.3438 14.3438 13.2105 14.3438 11.8125C14.3438 10.4145 13.2105 9.28125 11.8125 9.28125C10.4145 9.28125 9.28125 10.4145 9.28125 11.8125C9.28125 13.2105 10.4145 14.3438 11.8125 14.3438Z" fill="white"/>
<path fill-rule="evenodd" clip-rule="evenodd" d="M3.375 11.475C3.375 8.63975 3.375 7.22208 3.92678 6.13918C4.41214 5.1866 5.1866 4.41214 6.13918 3.92678C7.22208 3.375 8.63975 3.375 11.475 3.375H12.15C14.9853 3.375 16.4029 3.375 17.4858 3.92678C18.4384 4.41214 19.2129 5.1866 19.6982 6.13918C20.25 7.22208 20.25 8.63975 20.25 11.475V12.15C20.25 14.9853 20.25 16.4029 19.6982 17.4858C19.2129 18.4384 18.4384 19.2129 17.4858 19.6982C16.4029 20.25 14.9853 20.25 12.15 20.25H11.475C8.63975 20.25 7.22208 20.25 6.13918 19.6982C5.1866 19.2129 4.41214 18.4384 3.92678 17.4858C3.375 16.4029 3.375 14.9853 3.375 12.15V11.475ZM11.475 5.0625H12.15C13.5955 5.0625 14.5781 5.06382 15.3376 5.12587C16.0775 5.18631 16.4558 5.29587 16.7197 5.43035C17.3548 5.75393 17.871 6.27024 18.1946 6.90525C18.3291 7.16918 18.4387 7.54751 18.4991 8.2874C18.5612 9.04694 18.5625 10.0295 18.5625 11.475V12.15C18.5625 13.5955 18.5612 14.5781 18.4991 15.3376C18.4387 16.0775 18.3291 16.4558 18.1946 16.7197C17.871 17.3548 17.3548 17.871 16.7197 18.1946C16.4558 18.3291 16.0775 18.4387 15.3376 18.4991C14.5781 18.5612 13.5955 18.5625 12.15 18.5625H11.475C10.0295 18.5625 9.04694 18.5612 8.2874 18.4991C7.54751 18.4387 7.16918 18.3291 6.90525 18.1946C6.27024 17.871 5.75393 17.3548 5.43035 16.7197C5.29587 16.4558 5.18631 16.0775 5.12587 15.3376C5.06382 14.5781 5.0625 13.5955 5.0625 12.15V11.475C5.0625 10.0295 5.06382 9.04694 5.12587 8.2874C5.18631 7.54751 5.29587 7.16918 5.43035 6.90525C5.75393 6.27024 6.27024 5.75393 6.90525 5.43035C7.16918 5.29587 7.54751 5.18631 8.2874 5.12587C9.04694 5.06382 10.0295 5.0625 11.475 5.0625Z" fill="white"/>
<defs>
<radialGradient id="paint0_radial_403845_153" cx="0" cy="0" r="1" gradientUnits="userSpaceOnUse" gradientTransform="translate(8.4375 17.7188) rotate(-55.3758) scale(21.5322)">
<stop stop-color="#B13589"/>
<stop offset="0.79309" stop-color="#C62F94"/>
<stop offset="1" stop-color="#8A3AC8"/>
</radialGradient>
<radialGradient id="paint1_radial_403845_153" cx="0" cy="0" r="1" gradientUnits="userSpaceOnUse" gradientTransform="translate(7.59375 24.4688) rotate(-65.1363) scale(19.0639)">
<stop stop-color="#E0E8B7"/>
<stop offset="0.444662" stop-color="#FB8A2E"/>
<stop offset="0.71474" stop-color="#E2425C"/>
<stop offset="1" stop-color="#E2425C" stop-opacity="0"/>
</radialGradient>
<radialGradient id="paint2_radial_403845_153" cx="0" cy="0" r="1" gradientUnits="userSpaceOnUse" gradientTransform="translate(-1.26562 0.84375) rotate(-8.1301) scale(32.8142 7.01862)">
<stop offset="0.156701" stop-color="#406ADC"/>
<stop offset="0.467799" stop-color="#6A45BE"/>
<stop offset="1" stop-color="#6A45BE" stop-opacity="0"/>
</radialGradient>
</defs>
</svg>
