<svg width="40" height="40" viewBox="0 0 40 40" fill="none" xmlns="http://www.w3.org/2000/svg">
<path d="M39.6094 0.441407C39.0888 -0.147136 38.2445 -0.147136 37.7238 0.441407L34.9161 3.61534V2.03606C34.9161 1.20367 34.3192 0.528753 33.5828 0.528753H1.33336C0.596952 0.528841 0 1.20367 0 2.03606V38.4927C0 39.3251 0.596952 40 1.33336 40H33.5829C34.3192 40 34.9163 39.3252 34.9163 38.4927V7.87848L39.6096 2.57293C40.1302 1.98439 40.1302 1.03004 39.6094 0.441407ZM32.2496 6.62985L17.406 23.4097L9.44725 14.4127C8.92663 13.824 8.08233 13.824 7.56163 14.4127C7.04093 15.0013 7.04093 15.9557 7.56163 16.5443L16.4632 26.6071C16.9839 27.1957 17.8281 27.1957 18.3488 26.6071L32.2495 10.893V36.9854H2.66664V3.54336H32.2496V6.62985Z" fill="#262137"/>
</svg>
