<svg width="40" height="41" viewBox="0 0 40 41" fill="none" xmlns="http://www.w3.org/2000/svg">
<path d="M0 0.95813V40.9581H40V0.95813H0ZM17.7563 11.6539C18.8889 11.6422 19.9967 11.7678 20.5371 11.7833C22.5404 11.841 22.8942 12.8542 22.8686 13.6876C22.8312 14.9082 22.0459 20.0713 23.501 20.5748C25.6213 19.441 27.0431 15.9195 28.0786 13.6876C28.6024 12.5587 28.5196 12.5026 29.7265 12.5011L34.5215 12.4938C35.6761 12.4923 35.6311 12.4519 36.001 12.9235C36.8613 14.0204 33.2861 18.5833 32.1313 19.8449C30.0004 22.1731 31.2437 23.0747 31.5869 23.3947C33.1772 24.8774 34.7139 26.415 35.6689 27.8331C36.4282 28.9605 36.1146 30.0102 35.1489 30.0499L30.0073 30.2623C28.3011 30.3325 25.6481 27.2739 25.2246 26.6075C24.8821 26.0579 23.2316 25.369 23.0762 26.7735L22.8589 28.734C22.701 30.1353 21.6663 30.1026 20.8496 30.1378C15.194 30.3811 13.2679 28.2279 10.4199 25.0499C8.33253 22.0979 6.34057 19.1289 4.68993 15.5723C4.19587 14.5077 3.93417 13.7268 3.86717 12.899C4.6977 12.2499 7.61293 12.5295 9.5703 12.4864C10.1057 12.4746 10.4669 12.7813 10.7495 13.3922C11.8522 15.7759 13.0548 18.1168 14.646 20.1866C15.339 20.8249 15.9516 21.0596 16.2573 19.7618C16.4349 19.7455 16.4206 17.5964 16.4307 15.9752C16.4376 14.862 16.3068 13.5271 14.4214 12.9112C14.8027 11.9115 16.3002 11.669 17.7563 11.6539Z" fill="#262137"/>
</svg>
