<svg width="32" height="32" viewBox="0 0 32 32" fill="none" xmlns="http://www.w3.org/2000/svg">
<path d="M20.2667 10.6665V8.5332H11.7334V23.4666H20.2667V21.3332H13.8667V17.0665H19.2001V14.9332H13.8667V10.6665H20.2667Z" fill="black"/>
<path d="M31.3751 17.5084C31.5732 17.3103 31.7303 17.0752 31.8376 16.8164C31.9448 16.5575 32 16.2801 32 16C32 15.7199 31.9448 15.4425 31.8376 15.1836C31.7303 14.9248 31.5732 14.6897 31.3751 14.4916L25.2024 8.31924L28.2963 5.26559C28.7526 5.37866 29.2335 5.33798 29.6643 5.14987C30.0952 4.96176 30.4519 4.63673 30.6791 4.2252C30.9064 3.81368 30.9915 3.33866 30.9212 2.87383C30.8509 2.40901 30.6292 1.98037 30.2905 1.65441C29.9517 1.32845 29.5149 1.12339 29.0477 1.07104C28.5805 1.01869 28.1091 1.12198 27.7066 1.36488C27.3041 1.60779 26.9931 1.97673 26.8217 2.41447C26.6503 2.85221 26.6281 3.33428 26.7586 3.7859L23.6938 6.81044L17.5084 0.624939C17.3103 0.426814 17.0752 0.269648 16.8164 0.162419C16.5575 0.0551906 16.2801 0 16 0C15.7199 0 15.4425 0.0551906 15.1836 0.162419C14.9248 0.269648 14.6897 0.426814 14.4916 0.624939L8.31924 6.79743L5.26591 3.70313C5.37891 3.24675 5.33815 2.76583 5.14993 2.33498C4.96171 1.90413 4.63657 1.54744 4.22494 1.32025C3.81331 1.09306 3.33821 1.00806 2.87334 1.07845C2.40847 1.14884 1.97983 1.37067 1.65391 1.70954C1.32799 2.04841 1.12302 2.48537 1.07079 2.95262C1.01856 3.41988 1.12199 3.89131 1.36504 4.29378C1.60809 4.69625 1.97717 5.00726 2.41502 5.17855C2.85287 5.34985 3.33502 5.37185 3.78665 5.24116L6.81065 8.30623L0.624939 14.4916C0.426814 14.6897 0.269648 14.9248 0.162419 15.1836C0.0551906 15.4425 0 15.7199 0 16C0 16.2801 0.0551906 16.5575 0.162419 16.8164C0.269648 17.0752 0.426814 17.3103 0.624939 17.5084L6.81044 23.6938L3.78665 26.7588C3.33603 26.6291 2.85521 26.6516 2.41869 26.8229C1.98217 26.9942 1.61435 27.3047 1.37223 27.7063C1.13011 28.1079 1.02721 28.5781 1.07949 29.0441C1.13176 29.5101 1.33629 29.9458 1.66137 30.2838C1.98645 30.6217 2.41393 30.843 2.87755 30.9133C3.34117 30.9836 3.81504 30.8991 4.22571 30.6727C4.63638 30.4464 4.96091 30.0909 5.14901 29.6613C5.33712 29.2318 5.37828 28.7522 5.26612 28.2969L8.31946 25.2026L14.4918 31.3751C14.6899 31.5732 14.925 31.7303 15.1839 31.8376C15.4427 31.9448 15.7201 32 16.0002 32C16.2804 32 16.5578 31.9448 16.8166 31.8376C17.0754 31.7303 17.3105 31.5732 17.5086 31.3751L23.694 25.1896L26.7588 28.2141C26.6291 28.6648 26.6517 29.1457 26.823 29.5823C26.9944 30.0189 27.305 30.3868 27.7067 30.6289C28.1084 30.871 28.5787 30.9739 29.0448 30.9215C29.5109 30.8691 29.9467 30.6645 30.2846 30.3393C30.6226 30.0141 30.8438 29.5865 30.9141 29.1228C30.9843 28.659 30.8996 28.1851 30.6731 27.7744C30.4466 27.3637 30.091 27.0392 29.6613 26.8512C29.2316 26.6631 28.7519 26.6221 28.2965 26.7344L25.2026 23.6808L31.3751 17.5084ZM16 29.8667L2.13331 16L16 2.13331L29.8667 16L16 29.8667Z" fill="black"/>
</svg>
