<svg width="41" height="41" viewBox="0 0 41 41" fill="none" xmlns="http://www.w3.org/2000/svg">
<path d="M20.1734 0.942579C24.1286 0.958782 27.9899 2.1217 31.2689 4.28426C34.5479 6.44683 37.0974 9.51192 38.595 13.0919C40.0926 16.6719 40.471 20.6061 39.6823 24.3969C38.8937 28.1876 36.9735 31.6648 34.1645 34.3886C31.3555 37.1124 27.7839 38.9606 23.9013 39.6994C20.0187 40.4381 15.9995 40.0343 12.352 38.539C8.7045 37.0437 5.59249 34.5241 3.4095 31.2988C1.22651 28.0734 0.0705919 24.2872 0.0879191 20.419C0.111154 15.2318 2.24035 10.2657 6.00711 6.61314C9.77387 2.96062 14.8696 0.920851 20.1734 0.942579ZM20.0099 37.4514C23.4377 37.4654 26.793 36.485 29.6515 34.6342C32.51 32.7833 34.7433 30.1451 36.069 27.0532C37.3946 23.9612 37.7531 20.5545 37.0991 17.2636C36.4451 13.9728 34.808 10.9458 32.3947 8.56525C29.9815 6.18475 26.9005 4.55772 23.5415 3.88991C20.1824 3.22209 16.6961 3.54349 13.5235 4.81347C10.3508 6.08343 7.63427 8.24494 5.71737 11.0246C3.80048 13.8043 2.76932 17.0774 2.75431 20.4299C2.73417 24.9254 4.54084 29.2443 7.7769 32.4365C11.0129 35.6287 15.4133 37.4326 20.0099 37.4514Z" fill="#262137"/>
<path d="M15.5856 7.65256C15.9385 7.65547 16.2759 7.79517 16.5237 8.04105L28.2565 19.6152C28.3799 19.7368 28.4776 19.881 28.544 20.0395C28.6104 20.1981 28.6441 20.3679 28.6434 20.5393C28.6426 20.7106 28.6073 20.8801 28.5395 21.0381C28.4717 21.1961 28.3728 21.3395 28.2483 21.4601L16.4188 32.9312C16.1676 33.1748 15.8277 33.3109 15.474 33.3094C15.1202 33.308 14.7816 33.1692 14.5325 32.9235C14.2835 32.6778 14.1444 32.3454 14.146 31.9994C14.1475 31.6534 14.2895 31.3222 14.5408 31.0786L25.4196 20.5228L14.6357 9.87827C14.4512 9.69519 14.3262 9.46284 14.2764 9.21044C14.2265 8.95803 14.2541 8.69683 14.3556 8.45967C14.4571 8.22251 14.628 8.01998 14.8468 7.87753C15.0657 7.73509 15.3227 7.65909 15.5855 7.65908L15.5856 7.65256Z" fill="#262137"/>
</svg>
