<svg width="24" height="24" viewBox="0 0 24 24" fill="none" xmlns="http://www.w3.org/2000/svg">
<g clip-path="url(#clip0_403850_126)">
<path fill-rule="evenodd" clip-rule="evenodd" d="M11.9992 0.25C5.373 0.25 0 5.64381 0 12.2982C0 17.6202 3.438 22.1357 8.20725 23.7291C8.80725 23.8416 9.02625 23.4678 9.02625 23.1486L9.00975 21.0998C5.6715 21.8279 4.96725 19.4847 4.96725 19.4847C4.422 18.0934 3.63525 17.7228 3.63525 17.7228C2.5455 16.975 3.71775 16.9902 3.71775 16.9902C4.9215 17.0753 5.55525 18.2318 5.55525 18.2318C6.62625 20.0731 8.364 19.5413 9.048 19.2325C9.15675 18.454 9.46725 17.923 9.81 17.62C7.14525 17.3159 4.344 16.2828 4.344 11.6663C4.344 10.3508 4.81125 9.27569 5.57925 8.43306C5.4555 8.12819 5.04375 6.90381 5.69625 5.245C5.69625 5.245 6.70425 4.92119 8.99625 6.47987C9.954 6.2125 10.98 6.07938 12.0007 6.07394C13.02 6.07919 14.0468 6.21269 15.0052 6.47987C17.2957 4.92119 18.3015 5.245 18.3015 5.245C18.9563 6.90381 18.5445 8.12819 18.4207 8.43306C19.1903 9.27569 19.6545 10.3508 19.6545 11.6663C19.6545 16.2938 16.8487 17.3129 14.1757 17.611C14.6062 17.983 14.9902 18.7178 14.9902 19.8422L14.9752 23.1471C14.9752 23.4696 15.1912 23.8446 15.8002 23.7261C20.565 22.1314 24 17.6189 24 12.2982C24 5.64381 18.627 0.25 11.9992 0.25Z" fill="#3E75C3"/>
</g>
<defs>
<clipPath id="clip0_403850_126">
<rect width="24" height="24" fill="white"/>
</clipPath>
</defs>
</svg>
