<svg width="16" height="16" viewBox="0 0 16 16" fill="none" xmlns="http://www.w3.org/2000/svg">
<path d="M10.1334 5.33229V4.26562H5.8667V11.7323H10.1334V10.6656H6.93337V8.5323H9.60004V7.46563H6.93337V5.33229H10.1334Z" fill="black"/>
<path d="M15.6875 8.75419C15.7866 8.65516 15.8652 8.53758 15.9188 8.40818C15.9724 8.27877 16 8.14007 16 8C16 7.85993 15.9724 7.72123 15.9188 7.59182C15.8652 7.46242 15.7866 7.34484 15.6875 7.24581L12.6012 4.15962L14.1482 2.63279C14.3763 2.68933 14.6168 2.66899 14.8322 2.57494C15.0476 2.48088 15.2259 2.31837 15.3396 2.1126C15.4532 1.90684 15.4957 1.66933 15.4606 1.43692C15.4255 1.20451 15.3146 0.990185 15.1452 0.827205C14.9759 0.664224 14.7574 0.561694 14.5238 0.535519C14.2903 0.509345 14.0546 0.56099 13.8533 0.682442C13.6521 0.803894 13.4965 0.988364 13.4108 1.20723C13.3251 1.42611 13.314 1.66714 13.3793 1.89295L11.8469 3.40522L8.75419 0.31247C8.65516 0.213407 8.53758 0.134824 8.40818 0.0812096C8.27877 0.0275953 8.14007 0 8 0C7.85993 0 7.72123 0.0275953 7.59182 0.0812096C7.46242 0.134824 7.34484 0.213407 7.24581 0.31247L4.15962 3.39871L2.63295 1.85157C2.68946 1.62337 2.66907 1.38291 2.57496 1.16749C2.48086 0.952066 2.31828 0.773722 2.11247 0.660125C1.90665 0.546529 1.6691 0.504031 1.43667 0.539225C1.20424 0.574419 0.989916 0.685337 0.826956 0.854771C0.663997 1.02421 0.561509 1.24268 0.535394 1.47631C0.509278 1.70994 0.560995 1.94565 0.68252 2.14689C0.804045 2.34812 0.988586 2.50363 1.20751 2.58928C1.42644 2.67492 1.66751 2.68593 1.89333 2.62058L3.40533 4.15311L0.31247 7.24581C0.213407 7.34484 0.134824 7.46242 0.0812096 7.59182C0.0275953 7.72123 0 7.85993 0 8C0 8.14007 0.0275953 8.27877 0.0812096 8.40818C0.134824 8.53758 0.213407 8.65516 0.31247 8.75419L3.40522 11.8469L1.89333 13.3794C1.66802 13.3146 1.4276 13.3258 1.20934 13.4115C0.991087 13.4971 0.807175 13.6524 0.686114 13.8531C0.565054 14.0539 0.513605 14.289 0.539743 14.522C0.565881 14.755 0.668145 14.9729 0.830686 15.1419C0.993227 15.3109 1.20697 15.4215 1.43878 15.4567C1.67059 15.4918 1.90752 15.4495 2.11285 15.3364C2.31819 15.2232 2.48046 15.0454 2.57451 14.8307C2.66856 14.6159 2.68914 14.3761 2.63306 14.1484L4.15973 12.6013L7.24592 15.6875C7.34495 15.7866 7.46252 15.8652 7.59193 15.9188C7.72133 15.9724 7.86003 16 8.00011 16C8.14018 16 8.27888 15.9724 8.40828 15.9188C8.53769 15.8652 8.65526 15.7866 8.75429 15.6875L11.847 12.5948L13.3794 14.107C13.3146 14.3324 13.3258 14.5729 13.4115 14.7912C13.4972 15.0094 13.6525 15.1934 13.8533 15.3144C14.0542 15.4355 14.2894 15.4869 14.5224 15.4607C14.7554 15.4346 14.9733 15.3323 15.1423 15.1696C15.3113 15.007 15.4219 14.7932 15.457 14.5614C15.4921 14.3295 15.4498 14.0926 15.3366 13.8872C15.2233 13.6819 15.0455 13.5196 14.8306 13.4256C14.6158 13.3316 14.376 13.3111 14.1483 13.3672L12.6013 11.8404L15.6875 8.75419ZM8 14.9333L1.06666 8L8 1.06666L14.9333 8L8 14.9333Z" fill="black"/>
</svg>
