<svg width="64" height="64" viewBox="0 0 64 64" fill="none" xmlns="http://www.w3.org/2000/svg">
<path d="M40.5335 21.3331V17.0664H23.4668V46.9331H40.5335V42.6664H27.7335V34.1331H38.4001V29.8664H27.7335V21.3331H40.5335Z" fill="black"/>
<path d="M62.7501 35.0168C63.1464 34.6206 63.4607 34.1503 63.6752 33.6327C63.8896 33.1151 64 32.5603 64 32C64 31.4397 63.8896 30.8849 63.6752 30.3673C63.4607 29.8497 63.1464 29.3794 62.7501 28.9832L50.4047 16.6385L56.5927 10.5312C57.5053 10.7573 58.467 10.676 59.3287 10.2997C60.1903 9.92353 60.9037 9.27347 61.3582 8.45041C61.8127 7.62735 61.9829 6.67731 61.8424 5.74767C61.7018 4.81802 61.2584 3.96074 60.5809 3.30882C59.9034 2.6569 59.0297 2.24677 58.0954 2.14208C57.161 2.03738 56.2182 2.24396 55.4133 2.72977C54.6083 3.21558 53.9861 3.95346 53.6433 4.82894C53.3005 5.70442 53.2562 6.66857 53.5173 7.57181L47.3875 13.6209L35.0168 1.24988C34.6206 0.853627 34.1503 0.539296 33.6327 0.324838C33.1151 0.110381 32.5603 0 32 0C31.4397 0 30.8849 0.110381 30.3673 0.324838C29.8497 0.539296 29.3794 0.853627 28.9832 1.24988L16.6385 13.5949L10.5318 7.40626C10.7578 6.4935 10.6763 5.53166 10.2999 4.66996C9.92343 3.80827 9.27314 3.09489 8.44988 2.6405C7.62662 2.18612 6.67642 2.01612 5.74668 2.1569C4.81695 2.29767 3.95966 2.74135 3.30782 3.41908C2.65599 4.09682 2.24604 4.97073 2.14157 5.90524C2.03711 6.83975 2.24398 7.78262 2.73008 8.58756C3.21618 9.3925 3.95434 10.0145 4.83004 10.3571C5.70574 10.6997 6.67003 10.7437 7.5733 10.4823L13.6213 16.6125L1.24988 28.9832C0.853627 29.3794 0.539296 29.8497 0.324838 30.3673C0.110381 30.8849 0 31.4397 0 32C0 32.5603 0.110381 33.1151 0.324838 33.6327C0.539296 34.1503 0.853627 34.6206 1.24988 35.0168L13.6209 47.3875L7.5733 53.5177C6.67207 53.2582 5.71041 53.3032 4.83738 53.6458C3.96435 53.9884 3.2287 54.6094 2.74446 55.4126C2.26021 56.2157 2.05442 57.1562 2.15897 58.0882C2.26352 59.0202 2.67258 59.8917 3.32274 60.5676C3.97291 61.2435 4.82786 61.686 5.7551 61.8267C6.68234 61.9673 7.63008 61.7981 8.45142 61.3454C9.27276 60.8927 9.92183 60.1817 10.298 59.3226C10.6742 58.4635 10.7566 57.5044 10.5322 56.5937L16.6389 50.4051L28.9837 62.7501C29.3798 63.1464 29.8501 63.4607 30.3677 63.6752C30.8853 63.8896 31.4401 64 32.0004 64C32.5607 64 33.1155 63.8896 33.6331 63.6752C34.1508 63.4607 34.6211 63.1464 35.0172 62.7501L47.388 50.3791L53.5177 56.4282C53.2582 57.3296 53.3033 58.2915 53.6461 59.1646C53.9888 60.0378 54.61 60.7735 55.4134 61.2578C56.2167 61.742 57.1574 61.9477 58.0896 61.843C59.0217 61.7383 59.8933 61.329 60.5692 60.6786C61.2452 60.0282 61.6876 59.173 61.8281 58.2455C61.9686 57.3181 61.7992 56.3702 61.3462 55.5488C60.8932 54.7274 60.1819 54.0784 59.3226 53.7023C58.4632 53.3263 57.5038 53.2442 56.5931 53.4688L50.4051 47.3615L62.7501 35.0168ZM32 59.7334L4.26663 32L32 4.26663L59.7334 32L32 59.7334Z" fill="black"/>
</svg>
